HIERARCHY
ROOT Hips
{
	OFFSET 0.000000 0.000000 0.000000
	CHANNELS 6 Xposition Yposition Zposition Xrotation Yrotation Zrotation
	JOINT LeftUpLeg_virtual
	{
		OFFSET 0.000000 0.000000 0.000000
		CHANNELS 3 Xrotation Yrotation Zrotation
		JOINT LeftUpLeg
		{
			OFFSET 11.394100 -6.187798 -0.413800
			CHANNELS 3 Xrotation Yrotation Zrotation
			JOINT LeftLeg
			{
				OFFSET 0.430247 -32.302673 3.732800
				CHANNELS 3 Xrotation Yrotation Zrotation
				JOINT LeftFoot
				{
					OFFSET -0.430247 -48.264931 -6.423300
					CHANNELS 3 Xrotation Yrotation Zrotation
					JOINT LeftToeBase
					{
						OFFSET 4.230900 -16.068199 23.438400
						CHANNELS 3 Xrotation Yrotation Zrotation
						JOINT LeftToe_End
						{
							OFFSET 4.510700 0.695400 19.974600
							CHANNELS 3 Xrotation Yrotation Zrotation
							End Site
							{
								OFFSET 0 0 0
							}
						}
					}
				}
			}
		}
	}
	JOINT RightUpLeg_virtual
	{
		OFFSET 0.000000 0.000000 0.000000
		CHANNELS 3 Xrotation Yrotation Zrotation
		JOINT RightUpLeg
		{
			OFFSET -11.333700 -6.187798 -0.413800
			CHANNELS 3 Xrotation Yrotation Zrotation
			JOINT RightLeg
			{
				OFFSET -0.430392 -32.302628 3.733000
				CHANNELS 3 Xrotation Yrotation Zrotation
				JOINT RightFoot
				{
					OFFSET 0.430392 -48.264973 -6.423500
					CHANNELS 3 Xrotation Yrotation Zrotation
					JOINT RightToeBase
					{
						OFFSET -4.230900 -16.068199 23.438400
						CHANNELS 3 Xrotation Yrotation Zrotation
						JOINT RightToe_End
						{
							OFFSET -4.510700 0.695400 19.974600
							CHANNELS 3 Xrotation Yrotation Zrotation
							End Site
							{
								OFFSET 0 0 0
							}
						}
					}
				}
			}
		}
	}
	JOINT Spine_virtual
	{
		OFFSET 0.000000 0.000000 0.000000
		CHANNELS 3 Xrotation Yrotation Zrotation
		JOINT Spine
		{
			OFFSET -0.002400 12.777504 0.315300
			CHANNELS 3 Xrotation Yrotation Zrotation
			JOINT Spine1
			{
				OFFSET -0.002067 5.816869 0.032633
				CHANNELS 3 Xrotation Yrotation Zrotation
				JOINT Spine1_split
				{
					OFFSET -0.002067 5.816869 0.032633
					CHANNELS 3 Xrotation Yrotation Zrotation
					JOINT Spine2
					{
						OFFSET -0.002067 5.816869 0.032633
						CHANNELS 3 Xrotation Yrotation Zrotation
						JOINT Neck_virtual
						{
							OFFSET 0.000000 0.000000 0.000000
							CHANNELS 3 Xrotation Yrotation Zrotation
							JOINT Neck
							{
								OFFSET -0.003700 21.199493 -0.826900
								CHANNELS 3 Xrotation Yrotation Zrotation
								JOINT Head
								{
									OFFSET 0.000000 20.442200 4.834800
									CHANNELS 3 Xrotation Yrotation Zrotation
									JOINT HeadTop_End
									{
										OFFSET 0.000000 34.668396 4.968400
										CHANNELS 3 Xrotation Yrotation Zrotation
										End Site
										{
											OFFSET 0 0 0
										}
									}
								}
							}
						}
						JOINT LeftShoulder_virtual
						{
							OFFSET 0.000000 0.000000 0.000000
							CHANNELS 3 Xrotation Yrotation Zrotation
							JOINT LeftShoulder
							{
								OFFSET 3.288150 8.794197 -1.372250
								CHANNELS 3 Xrotation Yrotation Zrotation
								JOINT LeftShoulder_split
								{
									OFFSET 3.288150 8.794197 -1.372250
									CHANNELS 3 Xrotation Yrotation Zrotation
									JOINT LeftArm
									{
										OFFSET 11.953299 -2.279007 -0.146200
										CHANNELS 3 Xrotation Yrotation Zrotation
										JOINT LeftForeArm
										{
											OFFSET 18.448900 0.000000 0.000000
											CHANNELS 3 Xrotation Yrotation Zrotation
											JOINT LeftHand
											{
												OFFSET 29.527798 0.000000 0.000000
												CHANNELS 3 Xrotation Yrotation Zrotation
												End Site
												{
													OFFSET 0 0 0
												}
											}
										}
									}
								}
							}
						}
						JOINT RightShoulder_virtual
						{
							OFFSET 0.000000 0.000000 0.000000
							CHANNELS 3 Xrotation Yrotation Zrotation
							JOINT RightShoulder
							{
								OFFSET -3.249400 8.794197 -1.372250
								CHANNELS 3 Xrotation Yrotation Zrotation
								JOINT RightShoulder_split
								{
									OFFSET -3.249400 8.794197 -1.372250
									CHANNELS 3 Xrotation Yrotation Zrotation
									JOINT RightArm
									{
										OFFSET -11.953299 -2.279007 -0.146200
										CHANNELS 3 Xrotation Yrotation Zrotation
										JOINT RightForeArm
										{
											OFFSET -18.448900 0.000000 0.000000
											CHANNELS 3 Xrotation Yrotation Zrotation
											JOINT RightHand
											{
												OFFSET -29.527802 0.000000 0.000000
												CHANNELS 3 Xrotation Yrotation Zrotation
												End Site
												{
													OFFSET 0 0 0
												}
											}
										}
									}
								}
							}
						}
					}
				}
			}
		}
	}
}
MOTION
Frames: 8
Frame Time: 0.03333333
-0.093951 79.567604 -8.222204 0.000000 0.000000 0.000000 -12.790180 3.447112 1.243034 -37.709775 -5.365172 11.790489 71.966766 -0.234020 1.108542 -20.532295 -3.716798 -11.973007 -3.013840 -0.517115 0.202440 0.000000 0.000000 0.000000 -12.315920 2.507100 1.113406 -30.109834 -3.081796 -17.174680 72.473525 1.202180 -1.692643 -27.816832 -3.540160 10.929510 0.531561 0.636718 -0.209427 0.000000 0.000000 0.000000 -12.108735 2.615378 0.842543 25.473797 -2.138275 0.441674 13.716306 -0.122854 1.099353 0.073617 0.792890 0.260001 0.000000 0.000000 0.000000 14.448722 -0.192794 0.978970 14.165807 -2.184946 -0.767041 -10.662747 -3.857245 -0.422527 0.000000 0.000000 0.000000 15.039827 -0.296731 0.685183 0.921794 -20.606150 -4.412575 -1.562424 -0.078963 -4.059978 -29.137860 0.466999 -58.251719 -136.060264 -75.700243 -134.731888 0.000000 0.000000 0.000000 14.816886 0.058265 1.025956 8.020686 3.795057 21.963426 0.637365 3.550821 3.746866 -27.106007 20.942991 42.884340 -100.867544 65.111094 92.734510 0.000000 0.000000 0.000000 
-0.213894 80.009628 -7.856447 0.000000 0.000000 0.000000 -13.510866 3.272944 0.996264 -35.828690 -5.295703 11.963565 71.212167 -0.207922 1.208116 -20.717579 -3.442764 -11.978844 -3.133063 -0.496821 0.246213 0.000000 0.000000 0.000000 -13.009919 2.672561 0.886212 -28.490997 -3.014667 -16.640040 71.779312 1.087152 -1.699673 -28.043104 -3.592527 10.799957 0.596817 0.610460 -0.117337 0.000000 0.000000 0.000000 -13.056263 2.458408 0.725971 25.084891 -1.730877 0.221541 13.187407 -0.048510 1.174964 -0.182070 0.300119 0.210563 0.000000 0.000000 0.000000 13.586559 -0.118317 0.964282 13.180330 -2.249195 -1.095612 -9.458689 -3.716441 -0.292148 0.000000 0.000000 0.000000 14.721001 -0.320367 0.726537 0.775223 -20.534132 -5.684128 -0.993182 -0.519242 -3.519292 -26.828464 -1.106705 -58.482743 -133.184099 -78.246927 -131.810712 0.000000 0.000000 0.000000 14.231524 0.139128 1.160582 8.021047 4.200679 22.566018 0.481914 3.003996 4.043883 -24.001838 20.004673 41.275106 -100.660480 65.040203 92.356438 0.000000 0.000000 0.000000 
-0.387384 80.640198 -7.514322 0.000000 0.000000 0.000000 -14.310568 3.088386 0.768702 -33.730093 -5.283482 12.198859 70.097931 -0.202001 1.291739 -20.632403 -3.215968 -12.039074 -3.185631 -0.483269 0.273351 0.000000 0.000000 0.000000 -13.803694 2.836839 0.702850 -26.614857 -3.122835 -16.132823 70.722736 0.989745 -1.675692 -28.107371 -3.643078 10.686126 0.619725 0.586411 -0.028567 0.000000 0.000000 0.000000 -14.099883 2.523246 0.539649 24.427924 -1.276642 0.085500 12.784931 0.015378 1.260767 -0.219433 0.164871 0.240483 0.000000 0.000000 0.000000 12.913355 -0.075583 0.962213 11.950356 -2.277692 -1.518051 -8.647790 -3.548264 -0.155789 0.000000 0.000000 0.000000 14.432890 -0.338250 0.820694 0.663093 -20.834261 -6.948328 -0.993396 -0.913316 -3.207083 -24.077084 -3.674527 -57.865165 -125.015766 -80.684280 -123.195057 0.000000 0.000000 0.000000 13.692140 0.166448 1.328675 7.837428 4.385957 23.282197 -0.138755 2.871058 4.084039 -20.230559 20.010948 39.474259 -102.804961 66.225651 94.197229 0.000000 0.000000 0.000000 
-0.581035 81.370193 -7.208864 0.000000 0.000000 0.000000 -15.072016 2.918280 0.606818 -31.641596 -5.300159 12.448276 68.732289 -0.201152 1.326296 -20.280560 -3.055958 -12.103080 -3.179259 -0.481114 0.294190 0.000000 0.000000 0.000000 -14.605881 2.940615 0.599068 -24.734950 -3.404972 -15.736244 69.367244 0.922643 -1.618236 -27.940905 -3.687369 10.614336 0.566363 0.568924 0.025352 0.000000 0.000000 0.000000 -15.063811 2.819743 0.348652 23.724614 -0.864517 0.028536 12.447092 0.051891 1.308880 0.059893 0.303596 0.475915 0.000000 0.000000 0.000000 12.431476 -0.063411 0.967163 10.323674 -2.257294 -1.955851 -8.415876 -3.405617 0.018218 0.000000 0.000000 0.000000 14.042697 -0.348401 0.943309 0.650483 -21.227053 -7.823987 -1.287575 -1.139004 -3.337935 -21.891077 -6.168874 -56.579419 -114.225106 -82.443471 -111.555246 0.000000 0.000000 0.000000 13.176457 0.137633 1.480420 7.565159 4.187663 23.990766 -1.113871 2.938000 4.097983 -16.428166 20.334706 38.254271 -106.467110 68.384503 97.318700 0.000000 0.000000 0.000000 
-0.752919 82.121933 -6.955019 0.000000 0.000000 0.000000 -15.703710 2.793332 0.531591 -29.793777 -5.342879 12.659527 67.303263 -0.181646 1.303673 -19.764435 -2.942010 -12.103785 -3.102735 -0.484057 0.302303 0.000000 0.000000 0.000000 -15.299948 3.000214 0.570020 -23.004984 -3.817475 -15.460960 67.834611 0.882165 -1.527999 -27.618348 -3.747493 10.577666 0.447106 0.560482 0.027996 0.000000 0.000000 0.000000 -15.854177 3.237147 0.220239 23.118145 -0.568146 0.040422 12.078588 0.052252 1.285274 0.516171 0.463929 0.730685 0.000000 0.000000 0.000000 12.031465 -0.078355 0.970618 8.264913 -2.172590 -2.313047 -8.846824 -3.386249 0.257605 0.000000 0.000000 0.000000 13.540509 -0.349943 1.037128 0.748903 -21.459435 -8.288677 -1.900339 -1.018789 -4.013187 -20.321421 -7.810600 -55.363109 -106.101258 -83.773383 -102.315325 0.000000 0.000000 0.000000 12.653584 0.065035 1.538988 7.301724 3.638380 24.635661 -1.891922 3.209097 4.019737 -13.101373 20.337544 38.033707 -111.145893 71.158325 101.186466 0.000000 0.000000 0.000000 
-0.864355 82.807327 -6.713036 0.000000 0.000000 0.000000 -16.159316 2.718344 0.517893 -28.320845 -5.412081 12.796264 66.003362 -0.137182 1.244197 -19.212752 -2.829877 -12.055212 -2.969258 -0.487061 0.298979 0.000000 0.000000 0.000000 -15.852434 3.080795 0.591959 -21.500172 -4.284040 -15.276220 66.294130 0.860597 -1.411647 -27.289746 -3.810245 10.526540 0.324540 0.563721 -0.025504 0.000000 0.000000 0.000000 -16.402920 3.663811 0.198983 22.697692 -0.421727 0.072468 11.611887 0.025231 1.179823 0.812865 0.820845 0.809137 0.000000 0.000000 0.000000 11.634029 -0.097197 0.926595 5.910960 -2.034288 -2.514901 -9.744759 -3.405053 0.532490 0.000000 0.000000 0.000000 12.899217 -0.343477 1.058402 0.878443 -21.369381 -8.482425 -2.511472 -0.842745 -4.779991 -18.797138 -8.332731 -54.684789 -100.700102 -85.415757 -95.788834 0.000000 0.000000 0.000000 12.073456 -0.020434 1.496641 7.137203 2.816588 25.147903 -2.235811 3.395956 3.617216 -10.842373 19.841795 39.066677 -116.282905 74.262680 105.383569 0.000000 0.000000 0.000000 
-0.942277 83.385612 -6.475414 0.000000 0.000000 0.000000 -16.419102 2.667218 0.529380 -27.263953 -5.542274 12.848735 64.944854 -0.076079 1.184495 -18.732460 -2.672400 -12.014941 -2.820103 -0.483707 0.288306 0.000000 0.000000 0.000000 -16.239733 3.211986 0.632156 -20.255542 -4.719091 -15.147744 64.887466 0.843834 -1.269487 -27.080255 -3.871571 10.424808 0.246093 0.578347 -0.115652 0.000000 0.000000 0.000000 -16.721526 4.046482 0.316398 22.494449 -0.407567 0.094075 11.008886 0.004599 1.012879 0.966496 0.934597 0.914797 0.000000 0.000000 0.000000 11.128962 -0.099807 0.849274 3.491974 -1.864428 -2.546583 -10.881862 -3.374790 0.785362 0.000000 0.000000 0.000000 12.166320 -0.327248 1.017923 0.979999 -20.821190 -8.563567 -2.948839 -0.619383 -5.290881 -16.986102 -8.135739 -54.617065 -77.230493 -87.788483 -71.397975 0.000000 0.000000 0.000000 11.424086 -0.076580 1.384564 7.064967 1.897509 25.456013 -2.385631 3.536544 3.211252 -9.475079 19.054869 40.581665 -121.656871 77.530488 109.910298 0.000000 0.000000 0.000000 
-0.990896 83.846565 -6.253939 0.000000 0.000000 0.000000 -16.528440 2.666729 0.550399 -26.585658 -5.712253 12.834240 64.152285 0.001788 1.146087 -18.379412 -2.469023 -12.016540 -2.705858 -0.473471 0.276315 0.000000 0.000000 0.000000 -16.455840 3.385821 0.678442 -19.270604 -5.058815 -15.041863 63.682232 0.823100 -1.119547 -26.994354 -3.927959 10.283254 0.199487 0.600539 -0.220617 0.000000 0.000000 0.000000 -16.871735 4.328083 0.526801 22.435307 -0.479939 0.085204 10.306726 0.014203 0.831070 0.947273 0.850833 0.768406 0.000000 0.000000 0.000000 10.493133 -0.075448 0.752253 1.150020 -1.671201 -2.430553 -12.017907 -3.208675 0.956098 0.000000 0.000000 0.000000 11.393953 -0.295524 0.936836 0.969972 -19.905463 -8.715110 -3.355924 -0.569161 -5.257982 -14.603489 -7.841323 -55.079728 23.403457 -87.543375 29.895318 0.000000 0.000000 0.000000 10.721577 -0.076978 1.244734 7.085048 1.105385 25.693739 -2.307774 3.579199 2.748203 -8.645974 18.401435 41.918527 -127.709948 80.904608 115.449895 0.000000 0.000000 0.000000 
